<svg xmlns="http://www.w3.org/2000/svg" width="217" height="78" viewBox="0 0 217 78" version="1.1"><path d="M 78.881 2.781 C 78.552 4.769, 78.698 5.702, 79.253 5.147 C 79.757 4.643, 80.002 3.166, 79.797 1.865 C 79.482 -0.136, 79.342 0.004, 78.881 2.781 M 152.220 14.680 C 152.005 29.548, 151.954 29.870, 149.750 30.294 L 147.500 30.728 149.781 30.864 C 151.036 30.939, 152.287 30.417, 152.560 29.704 C 152.834 28.991, 152.919 21.904, 152.749 13.954 L 152.441 -0.500 152.220 14.680 M 190.397 15 C 190.397 22.975, 190.553 26.238, 190.743 22.250 C 190.932 18.263, 190.932 11.738, 190.743 7.750 C 190.553 3.762, 190.397 7.025, 190.397 15 M 202 2.378 C 202 2.585, 202.787 3.373, 203.750 4.128 C 205.336 5.371, 205.371 5.336, 204.128 3.750 C 202.821 2.084, 202 1.555, 202 2.378 M 132.564 20.293 C 132.940 21.279, 133.499 21.834, 133.807 21.526 C 134.115 21.219, 133.808 20.412, 133.124 19.733 C 132.136 18.753, 132.022 18.868, 132.564 20.293 M 131.564 23.293 C 131.940 24.279, 132.499 24.834, 132.807 24.526 C 133.115 24.219, 132.808 23.412, 132.124 22.733 C 131.136 21.753, 131.022 21.868, 131.564 23.293 M 79.116 27.210 C 79.001 29.898, 78.937 29.922, 70.750 30.256 L 62.500 30.593 70.781 30.796 C 79.481 31.010, 80.753 30.370, 79.701 26.308 C 79.390 25.108, 79.193 25.411, 79.116 27.210 M 9.750 30.662 C 10.438 30.940, 11.563 30.940, 12.250 30.662 C 12.938 30.385, 12.375 30.158, 11 30.158 C 9.625 30.158, 9.063 30.385, 9.750 30.662 M 30.750 30.662 C 31.438 30.940, 32.563 30.940, 33.250 30.662 C 33.938 30.385, 33.375 30.158, 32 30.158 C 30.625 30.158, 30.063 30.385, 30.750 30.662 M 49.750 30.662 C 50.438 30.940, 51.563 30.940, 52.250 30.662 C 52.938 30.385, 52.375 30.158, 51 30.158 C 49.625 30.158, 49.063 30.385, 49.750 30.662 M 165.750 30.732 C 168.088 30.943, 171.912 30.943, 174.250 30.732 C 176.588 30.522, 174.675 30.349, 170 30.349 C 165.325 30.349, 163.412 30.522, 165.750 30.732 M 188.750 30.723 C 190.537 30.945, 193.463 30.945, 195.250 30.723 C 197.037 30.502, 195.575 30.320, 192 30.320 C 188.425 30.320, 186.963 30.502, 188.750 30.723 M 7.402 62 C 7.402 70.525, 7.556 74.013, 7.743 69.750 C 7.931 65.487, 7.931 58.513, 7.743 54.250 C 7.556 49.987, 7.402 53.475, 7.402 62 M 84.405 50.250 L 82.500 52.500 84.750 50.595 C 85.987 49.547, 87 48.535, 87 48.345 C 87 47.545, 86.195 48.136, 84.405 50.250 M 154.405 50.250 L 152.500 52.500 154.750 50.595 C 155.988 49.547, 157 48.535, 157 48.345 C 157 47.545, 156.195 48.136, 154.405 50.250 M 20.029 51.469 C 18.753 52.827, 17.385 53.738, 16.988 53.493 C 16.024 52.897, 12.664 56.683, 12.368 58.698 C 12.239 59.579, 14.578 57.886, 17.566 54.934 C 20.555 51.983, 23 49.440, 23 49.284 C 23 48.577, 22.180 49.180, 20.029 51.469 M 149.405 51.250 L 147.500 53.500 149.750 51.595 C 150.988 50.547, 152 49.535, 152 49.345 C 152 48.545, 151.195 49.136, 149.405 51.250 M 172 49.378 C 172 49.585, 172.787 50.373, 173.750 51.128 C 175.336 52.371, 175.371 52.336, 174.128 50.750 C 172.821 49.084, 172 48.555, 172 49.378 M 14.405 56.250 L 12.500 58.500 14.750 56.595 C 15.988 55.547, 17 54.535, 17 54.345 C 17 53.545, 16.195 54.136, 14.405 56.250 M 187.079 58.583 C 187.127 59.748, 187.364 59.985, 187.683 59.188 C 187.972 58.466, 187.936 57.603, 187.604 57.271 C 187.272 56.939, 187.036 57.529, 187.079 58.583 M 172.158 62 C 172.158 63.375, 172.385 63.938, 172.662 63.250 C 172.940 62.563, 172.940 61.438, 172.662 60.750 C 172.385 60.063, 172.158 60.625, 172.158 62 M 75.079 62.583 C 75.127 63.748, 75.364 63.985, 75.683 63.188 C 75.972 62.466, 75.936 61.603, 75.604 61.271 C 75.272 60.939, 75.036 61.529, 75.079 62.583 M 215.079 62.583 C 215.127 63.748, 215.364 63.985, 215.683 63.188 C 215.972 62.466, 215.936 61.603, 215.604 61.271 C 215.272 60.939, 215.036 61.529, 215.079 62.583 M 92.899 64.299 C 93.365 64.765, 95.265 64.989, 97.123 64.798 C 100.417 64.459, 100.396 64.438, 96.276 63.951 C 93.953 63.677, 92.433 63.833, 92.899 64.299 M 186.079 69.583 C 186.127 70.748, 186.364 70.985, 186.683 70.188 C 186.972 69.466, 186.936 68.603, 186.604 68.271 C 186.272 67.939, 186.036 68.529, 186.079 69.583 M 172.437 73.250 L 169.500 76.500 172.750 73.563 C 175.779 70.825, 176.460 70, 175.687 70 C 175.515 70, 174.052 71.463, 172.437 73.250 M 150 73.500 C 151.292 74.875, 152.574 76, 152.849 76 C 153.124 76, 152.292 74.875, 151 73.500 C 149.708 72.125, 148.426 71, 148.151 71 C 147.876 71, 148.708 72.125, 150 73.500 M 157.813 77.683 C 158.534 77.972, 159.397 77.936, 159.729 77.604 C 160.061 77.272, 159.471 77.036, 158.417 77.079 C 157.252 77.127, 157.015 77.364, 157.813 77.683 M 163.813 77.683 C 164.534 77.972, 165.397 77.936, 165.729 77.604 C 166.061 77.272, 165.471 77.036, 164.417 77.079 C 163.252 77.127, 163.015 77.364, 163.813 77.683" stroke="none" fill="#ffffffff" fill-rule="evenodd"/><path d="M 0 2.026 C 0 3.947, 0.152 3.973, 2.950 2.526 C 8.943 -0.573, 9 -0.451, 9 15.500 L 9 30 11.500 30 L 14 30 14 15.500 C 14 -0.029, 14.104 -0.299, 19 2.500 C 22.374 4.429, 22.904 4.348, 22.290 2 C 21.807 0.155, 20.926 0, 10.883 0 C 0.621 0, 0 0.116, 0 2.026 M 29 15 L 29 30 31.500 30 C 33.944 30, 34 29.833, 34 22.500 L 34 15 41 15 L 48 15 48 22.500 C 48 29.833, 48.056 30, 50.500 30 L 53 30 53 15 L 53 0 50.500 0 C 48.071 0, 48 0.200, 48 7 L 48 14 41 14 L 34 14 34 7 C 34 0.200, 33.929 0, 31.500 0 L 29 0 29 15 M 62 15 L 62 30 70.500 30 C 78.964 30, 79 29.989, 79 27.427 L 79 24.855 76.365 26.927 C 74.885 28.092, 72.255 29, 70.365 29 L 67 29 67 22.060 L 67 15.121 70.750 14.728 L 74.500 14.336 70.750 14.168 L 67 14 67 7.500 L 67 1 70.961 1 C 73.748 1, 75.526 1.649, 76.961 3.189 L 79 5.377 79 2.689 L 79 0 70.500 0 L 62 0 62 15 M 107.303 14.993 C 110.161 23.239, 112.725 29.989, 113.001 29.993 C 113.277 29.997, 115.256 25.005, 117.400 18.901 C 121.849 6.231, 121.194 6.018, 126.452 21.838 C 127.976 26.425, 129.550 29.800, 129.950 29.338 C 130.349 28.877, 131.941 24.900, 133.486 20.500 C 135.031 16.100, 137.334 9.688, 138.603 6.250 C 139.872 2.813, 140.567 0, 140.147 0 C 139.728 0, 137.614 5.155, 135.450 11.456 L 131.516 22.911 127.352 11.206 C 123.657 0.819, 123.082 -0.218, 122.250 2 C 121.735 3.375, 120.045 8.100, 118.495 12.500 C 115.151 21.991, 114.464 22.985, 113.607 19.572 C 113.252 18.156, 111.577 13.173, 109.886 8.499 C 107.214 1.114, 106.503 0, 104.459 0 C 102.115 0, 102.126 0.058, 107.303 14.993 M 148 15 C 148 29.333, 148.089 30, 150 30 C 151.911 30, 152 29.333, 152 15 C 152 0.667, 151.911 0, 150 0 C 148.089 0, 148 0.667, 148 15 M 161 15 L 161 30 170 30 C 178.933 30, 179 29.981, 179 27.500 C 179 24.614, 178.213 24.326, 176.549 26.602 C 175.893 27.499, 173.317 28.435, 170.689 28.732 L 166 29.260 166 14.630 L 166 0 163.500 0 L 161 0 161 15 M 186 15 L 186 30 193.614 30 C 203.301 30, 208.030 27.636, 211.122 21.247 C 214.685 13.887, 212.495 6.102, 205.696 1.956 C 203.212 0.441, 200.663 0.007, 194.250 0.004 L 186 0 186 15 M 190 15 L 190 29 195.365 29 C 202.567 29, 205.479 26.686, 207.037 19.725 C 208.465 13.346, 207.079 6.988, 203.476 3.385 C 201.536 1.445, 200.056 1, 195.545 1 L 190 1 190 15 M 3 61.500 C 3 76.333, 3.086 77, 5 77 C 6.914 77, 7 76.333, 7 61.500 C 7 46.667, 6.914 46, 5 46 C 3.086 46, 3 46.667, 3 61.500 M 16.358 53.875 L 8.217 61.533 13.682 69.266 C 17.935 75.284, 19.687 77, 21.574 77 C 22.908 77, 24 76.782, 24 76.515 C 24 76.248, 21.301 72.310, 18.003 67.765 L 12.006 59.500 18.593 53.173 C 22.216 49.694, 25.027 46.705, 24.840 46.532 C 24.653 46.359, 20.836 49.663, 16.358 53.875 M 32.667 46.667 C 32.300 47.033, 32 54.008, 32 62.167 L 32 77 34.500 77 L 37 77 37 61.500 C 37 47.136, 36.866 46, 35.167 46 C 34.158 46, 33.033 46.300, 32.667 46.667 M 45 46.941 C 45 47.459, 45.450 48.160, 46 48.500 C 46.574 48.855, 47.087 55.159, 47.204 63.309 L 47.408 77.500 47.954 64.539 L 48.500 51.577 57.500 64.249 C 62.450 71.218, 66.838 76.938, 67.250 76.960 C 67.662 76.982, 68 70.250, 68 62 C 68 44.659, 66.224 41.155, 65.784 57.628 L 65.500 68.256 57.587 57.128 C 51.373 48.389, 49.173 46, 47.337 46 C 46.052 46, 45 46.423, 45 46.941 M 83.848 48.018 C 78.689 50.743, 76 55.534, 76 62 C 76 71.681, 81.881 77.338, 91.936 77.328 C 95.196 77.325, 98.846 76.624, 100.750 75.636 C 103.815 74.044, 104 73.638, 104 68.474 L 104 63 98.250 63.168 C 93.984 63.293, 93.468 63.437, 96.250 63.728 L 100 64.121 100 69.025 C 100 74.681, 98.541 76, 92.288 76 C 85.039 76, 81 70.812, 81 61.500 C 81 58.420, 81.672 54.600, 82.494 53.011 C 85.519 47.162, 91.536 45.231, 94.760 49.075 C 97.138 51.911, 99.550 53.110, 101.428 52.389 C 103.952 51.421, 103.274 50.180, 99.040 48.020 C 94.110 45.505, 88.606 45.504, 83.848 48.018 M 112.750 46.555 C 112.338 46.983, 112 54.008, 112 62.167 L 112 77 119.288 77 C 131.907 77, 138.994 71.481, 138.998 61.651 C 139.002 52.041, 133.281 47.096, 121.226 46.292 C 116.977 46.009, 113.162 46.127, 112.750 46.555 M 156.001 47.123 C 141.981 52.714, 143.142 73.734, 157.653 77.045 C 168.852 79.599, 179.508 69.554, 177.418 58.414 C 175.708 49.300, 164.870 43.587, 156.001 47.123 M 186.933 49.250 C 186.896 51.038, 186.310 58.013, 185.631 64.750 C 184.952 71.487, 184.715 77, 185.105 77 C 185.495 77, 186.132 72.751, 186.521 67.557 C 187.820 50.232, 187.802 50.245, 193.430 62.660 C 196.132 68.622, 198.634 73.845, 198.989 74.268 C 199.345 74.690, 201.846 69.515, 204.548 62.768 L 209.460 50.500 210.209 58.500 C 211.966 77.261, 211.904 77, 214.617 77 C 216.849 77, 217.039 76.683, 216.563 73.750 C 216.272 71.963, 215.553 65.325, 214.965 59 C 213.385 41.997, 211.507 41.574, 205.601 56.889 C 203.457 62.450, 201.393 67, 201.015 67 C 200.636 67, 198.165 62.275, 195.524 56.500 C 191.933 48.652, 190.250 46, 188.860 46 C 187.442 46, 186.984 46.772, 186.933 49.250 M 157 48.279 C 149.902 51.825, 148.859 66.937, 155.241 73.750 C 157.545 76.210, 163.575 76.833, 167.055 74.970 C 171.284 72.707, 173.507 64.463, 171.904 56.989 C 170.146 48.791, 163.614 44.974, 157 48.279 M 117 62 L 117 76 121.777 76 C 127.451 76, 130.667 74.040, 132.606 69.401 C 135.449 62.596, 133.635 52.959, 128.883 49.631 C 127.519 48.676, 124.576 48, 121.777 48 L 117 48 117 62" stroke="none" fill="#d0ccb4ff" fill-rule="evenodd"/></svg>